<svg width="184" height="184" viewBox="0 0 184 184" fill="none" xmlns="http://www.w3.org/2000/svg">
<g clip-path="url(#clip0_501_10)">
<path fill-rule="evenodd" clip-rule="evenodd" d="M23.0906 173.457C23.0693 173.474 23.0675 173.268 23.1487 172.79C23.1524 173.202 23.1118 173.44 23.0906 173.457ZM60.6615 130.932C50.9488 138.711 41.8333 145.215 33.7381 150.224C44.7984 132.349 63.1487 109.5 86.4174 86.2311C109.686 62.9624 132.536 44.6121 150.411 33.5517C145.358 41.7167 138.785 50.9196 130.917 60.7263C136.077 67.2608 139.516 74.9727 140.937 83.1482C172.745 45.6065 189.758 12.7952 180.463 3.49962C168.747 -8.21611 119.677 21.8592 70.8611 70.6747C22.0456 119.49 -8.02978 168.561 3.68594 180.276C12.9603 189.551 45.6432 172.636 83.0777 140.968C74.903 139.541 67.193 136.097 60.6615 130.932ZM173.643 22.9042C173.627 22.9255 173.388 22.966 172.976 22.9623C173.454 22.8811 173.66 22.883 173.643 22.9042ZM161.058 10.3189C161.079 10.3024 161.081 10.5082 161 10.9859C160.996 10.5743 161.037 10.3354 161.058 10.3189ZM11.1722 160.814C10.6945 160.895 10.4887 160.893 10.5052 160.872C10.5217 160.85 10.7606 160.81 11.1722 160.814Z" fill="#F5841B"/>
<path fill-rule="evenodd" clip-rule="evenodd" d="M10.9317 23.1276C10.9152 23.1064 11.121 23.1045 11.5987 23.1857C11.1871 23.1894 10.9482 23.1488 10.9317 23.1276ZM86.8439 97.7682C63.5752 74.4994 45.2249 51.6501 34.1645 33.7751C42.0815 38.6738 50.9742 45.0025 60.447 52.5552C66.8823 47.3237 74.4935 43.7961 82.575 42.2472C45.5299 11.0845 13.31 -5.4746 4.11245 3.72296C-7.60328 15.4387 22.472 64.509 71.2876 113.325C120.103 162.14 169.173 192.215 180.889 180.5C190.208 171.181 173.088 138.231 141.128 100.574C139.607 108.681 136.1 116.3 130.911 122.736C138.971 132.743 145.693 142.134 150.837 150.448C132.962 139.387 110.113 121.037 86.8439 97.7682ZM161.484 173.68C161.463 173.664 161.423 173.425 161.426 173.013C161.508 173.491 161.506 173.697 161.484 173.68ZM174.07 161.095C174.086 161.116 173.881 161.118 173.403 161.037C173.814 161.033 174.053 161.074 174.07 161.095ZM23.5752 11.2092C23.494 10.7315 23.4958 10.5257 23.5171 10.5422C23.5383 10.5588 23.5789 10.7976 23.5752 11.2092Z" fill="#F5841B"/>
</g>
<defs>
<clipPath id="clip0_501_10">
<rect width="184" height="184" fill="white"/>
</clipPath>
</defs>
</svg>
