<svg width="704" height="188" viewBox="0 0 704 188" fill="none" xmlns="http://www.w3.org/2000/svg">
<path d="M243.864 145V44.95H309.414V58.9H260.514V87.85H303.114V101.95H260.364V131.05H309.414V145H243.864ZM364.304 113.35L341.354 145H324.254L356.204 102.7L364.304 113.35ZM398.804 145H379.604L325.004 69.7H344.054L398.804 145ZM358.604 101.95L381.854 69.7H399.104L366.254 113.35L358.604 101.95ZM443.088 147.25C430.888 147.25 421.788 143.8 415.788 136.9C409.888 130 406.938 120.15 406.938 107.35C406.938 93.75 409.988 83.8 416.088 77.5C422.288 71.1 431.188 67.9 442.788 67.9C451.088 67.9 457.938 69.45 463.338 72.55C468.738 75.55 472.738 80 475.338 85.9C477.938 91.8 479.238 98.95 479.238 107.35C479.238 120.05 476.088 129.9 469.788 136.9C463.588 143.8 454.688 147.25 443.088 147.25ZM442.938 133.9C448.038 133.9 452.088 132.8 455.088 130.6C458.088 128.3 460.238 125.15 461.538 121.15C462.938 117.15 463.638 112.55 463.638 107.35C463.638 101.55 462.938 96.7 461.538 92.8C460.138 88.9 457.938 86 454.938 84.1C451.938 82.1 447.938 81.1 442.938 81.1C437.938 81.1 433.938 82.15 430.938 84.25C427.938 86.35 425.788 89.35 424.488 93.25C423.188 97.15 422.538 101.85 422.538 107.35C422.538 115.65 424.088 122.15 427.188 126.85C430.288 131.55 435.538 133.9 442.938 133.9ZM562.807 95.2V145H547.057V97.3C547.057 95.4 546.807 93.55 546.307 91.75C545.907 89.85 545.057 88.15 543.757 86.65C542.557 85.05 540.757 83.8 538.357 82.9C536.057 82 533.007 81.55 529.207 81.55C526.507 81.55 523.807 81.8 521.107 82.3C518.407 82.8 515.807 83.5 513.307 84.4V145H497.557V75.85C499.757 74.75 502.207 73.75 504.907 72.85C507.707 71.85 510.657 71 513.757 70.3C516.857 69.6 520.007 69.05 523.207 68.65C526.407 68.25 529.507 68.05 532.507 68.05C539.607 68.05 545.357 69.05 549.757 71.05C554.157 72.95 557.407 75.95 559.507 80.05C561.707 84.05 562.807 89.1 562.807 95.2ZM544.807 79.75C548.007 77.15 551.507 75 555.307 73.3C559.207 71.6 563.207 70.3 567.307 69.4C571.507 68.5 575.607 68.05 579.607 68.05C586.707 68.05 592.457 69.05 596.857 71.05C601.257 72.95 604.507 75.95 606.607 80.05C608.807 84.05 609.907 89.1 609.907 95.2V145H594.157V97.3C594.157 95.4 593.907 93.55 593.407 91.75C593.007 89.85 592.157 88.15 590.857 86.65C589.657 85.05 587.857 83.8 585.457 82.9C583.157 82 580.107 81.55 576.307 81.55C573.607 81.55 570.907 81.95 568.207 82.75C565.507 83.55 562.907 84.8 560.407 86.5L544.807 79.75ZM664.576 147.25C657.176 147.25 650.726 145.75 645.226 142.75C639.826 139.75 635.626 135.3 632.626 129.4C629.726 123.5 628.276 116.3 628.276 107.8C628.276 94.7 631.326 84.8 637.426 78.1C643.626 71.3 652.226 67.9 663.226 67.9C671.326 67.9 677.876 69.7 682.876 73.3C687.876 76.9 691.476 81.95 693.676 88.45C695.976 94.85 697.076 102.35 696.976 110.95H637.726L637.276 99.25H684.976L681.226 103C680.926 95.3 679.326 89.7 676.426 86.2C673.526 82.6 668.976 80.8 662.776 80.8C658.776 80.8 655.376 81.65 652.576 83.35C649.776 84.95 647.626 87.75 646.126 91.75C644.726 95.65 644.026 101.05 644.026 107.95C644.026 116.35 645.976 122.75 649.876 127.15C653.776 131.45 659.526 133.6 667.126 133.6C670.526 133.6 673.676 133.3 676.576 132.7C679.576 132.1 682.326 131.35 684.826 130.45C687.326 129.45 689.476 128.5 691.276 127.6V142.15C687.776 143.65 683.826 144.85 679.426 145.75C675.026 146.75 670.076 147.25 664.576 147.25Z" fill="#141414"/>
<g clip-path="url(#clip0_507_25)">
<path fill-rule="evenodd" clip-rule="evenodd" d="M23.0906 177.457C23.0693 177.474 23.0675 177.268 23.1487 176.79C23.1524 177.202 23.1118 177.44 23.0906 177.457ZM60.6615 134.932C50.9488 142.711 41.8333 149.215 33.7381 154.224C44.7984 136.349 63.1487 113.5 86.4174 90.2311C109.686 66.9624 132.536 48.6121 150.411 37.5517C145.358 45.7167 138.785 54.9196 130.917 64.7263C136.077 71.2608 139.516 78.9727 140.937 87.1482C172.745 49.6065 189.758 16.7952 180.463 7.49961C168.747 -4.21612 119.677 25.8592 70.8611 74.6747C22.0456 123.49 -8.02978 172.561 3.68594 184.276C12.9603 193.551 45.6432 176.636 83.0777 144.968C74.903 143.541 67.193 140.097 60.6615 134.932ZM173.643 26.9042C173.627 26.9255 173.388 26.966 172.976 26.9623C173.454 26.8811 173.66 26.883 173.643 26.9042ZM161.058 14.3189C161.079 14.3023 161.081 14.5082 161 14.9859C160.996 14.5743 161.037 14.3354 161.058 14.3189ZM11.1722 164.814C10.6945 164.895 10.4887 164.893 10.5052 164.872C10.5217 164.85 10.7606 164.81 11.1722 164.814Z" fill="#F5841B"/>
<path fill-rule="evenodd" clip-rule="evenodd" d="M10.9317 27.1276C10.9152 27.1064 11.121 27.1045 11.5987 27.1857C11.1871 27.1894 10.9482 27.1488 10.9317 27.1276ZM86.8439 101.768C63.5752 78.4994 45.2249 55.6501 34.1645 37.7751C42.0815 42.6738 50.9742 49.0025 60.447 56.5552C66.8823 51.3237 74.4935 47.7961 82.575 46.2472C45.5299 15.0845 13.31 -1.4746 4.11245 7.72296C-7.60328 19.4387 22.472 68.509 71.2876 117.325C120.103 166.14 169.173 196.215 180.889 184.5C190.208 175.181 173.088 142.231 141.128 104.574C139.607 112.681 136.1 120.3 130.911 126.736C138.971 136.743 145.693 146.134 150.837 154.448C132.962 143.387 110.113 125.037 86.8439 101.768ZM161.484 177.68C161.463 177.664 161.423 177.425 161.426 177.013C161.508 177.491 161.506 177.697 161.484 177.68ZM174.07 165.095C174.086 165.116 173.881 165.118 173.403 165.037C173.814 165.033 174.053 165.074 174.07 165.095ZM23.5752 15.2092C23.494 14.7315 23.4958 14.5257 23.5171 14.5422C23.5383 14.5588 23.5789 14.7976 23.5752 15.2092Z" fill="#F5841B"/>
</g>
<defs>
<clipPath id="clip0_507_25">
<rect width="184" height="184" fill="white" transform="translate(0 4)"/>
</clipPath>
</defs>
</svg>
