<svg width="307" height="81" viewBox="0 0 307 81" fill="none"
  xmlns="http://www.w3.org/2000/svg">
  <g clip-path="url(#clip0)">
    <path d="M32.5555 73.1864C34.1176 71.6243 34.1176 69.0916 32.5555 67.5296C30.9934 65.9675 28.4608 65.9675 26.8987 67.5296L32.5555 73.1864ZM46.3987 53.5296C44.8366 55.0916 44.8366 57.6243 46.3987 59.1864C47.9608 60.7485 50.4934 60.7485 52.0555 59.1864L46.3987 53.5296ZM26.8987 67.5296C27.0477 67.3805 27.0075 67.462 26.5397 67.7207C26.141 67.9411 25.5813 68.2082 24.8822 68.4878C23.4813 69.0481 21.6898 69.5917 19.8012 69.9155C15.7037 70.6179 12.5992 70.0732 11.0555 68.5295L5.39867 74.1864C9.85496 78.6427 16.5005 78.598 21.1529 77.8005C23.6394 77.3742 25.9728 76.6678 27.8533 75.9156C28.7947 75.5391 29.6648 75.1342 30.4106 74.7218C31.0873 74.3477 31.9065 73.8354 32.5555 73.1864L26.8987 67.5296ZM11.0555 68.5295C10.5669 68.0409 9.98226 66.958 10.0004 64.7264C10.0184 62.5079 10.6461 59.5397 12.1182 55.9316C15.0545 48.7348 21.0753 39.6666 30.5555 30.1864L24.8987 24.5296C14.8789 34.5494 8.14972 44.4812 4.71099 52.9094C2.99563 57.1137 2.0295 61.1143 2.00066 64.6614C1.97193 68.1955 2.8873 71.675 5.39867 74.1864L11.0555 68.5295ZM30.5555 30.1864C39.9762 20.7657 48.9973 15.2532 56.0389 12.677C59.5713 11.3847 62.4742 10.8787 64.607 10.8969C66.8322 10.9159 67.6967 11.4844 67.8987 11.6864L73.5555 6.02956C71.2575 3.73152 67.9345 2.92505 64.6753 2.89719C61.3237 2.86854 57.4454 3.64381 53.2903 5.16399C44.9568 8.2128 34.978 14.4503 24.8987 24.5296L30.5555 30.1864ZM67.8987 11.6864C68.7383 12.526 70.2835 16.0186 67.6378 23.603C65.0895 30.9081 58.8914 41.0369 46.3987 53.5296L52.0555 59.1864C65.0628 46.1791 72.1147 35.0579 75.1914 26.238C78.1707 17.6974 77.7159 10.19 73.5555 6.02956L67.8987 11.6864Z" fill="url(#paint0_linear)"/>
    <path d="M29.2271 10.858C29.2271 10.858 15.7271 1.85799 9.2271 8.35797C2.72711 14.8579 8.22709 33.858 28.2271 53.858C48.2271 73.858 65.7271 77.3579 70.7271 72.358C75.7271 67.358 73.2271 55.358 70.7271 52.858" stroke="url(#paint1_linear)" stroke-width="8" stroke-linecap="round" stroke-linejoin="round"/>
    <circle cx="40.2271" cy="40.858" r="7" fill="url(#paint2_linear)"/>
    <path d="M104.38 64V19.978H133.222V26.116H111.706V38.854H130.516V45.058H111.64V57.862H133.222V64H104.38ZM172.554 64H164.106L155.658 52.384L147.276 64H139.752L152.16 47.566L140.082 30.868H148.464L156.78 42.352L165.096 30.868H172.686L160.41 47.236L172.554 64ZM192.039 64.99C186.671 64.99 182.667 63.472 180.027 60.436C177.431 57.4 176.133 53.066 176.133 47.434C176.133 41.494 177.475 37.116 180.159 34.3C182.887 31.484 186.825 30.076 191.973 30.076C197.385 30.076 201.411 31.594 204.051 34.63C206.691 37.622 208.011 41.89 208.011 47.434C208.011 53.022 206.625 57.356 203.853 60.436C201.081 63.472 197.143 64.99 192.039 64.99ZM191.973 59.116C195.317 59.116 197.671 58.038 199.035 55.882C200.399 53.726 201.081 50.91 201.081 47.434C201.081 43.65 200.377 40.79 198.969 38.854C197.561 36.874 195.229 35.884 191.973 35.884C188.629 35.884 186.297 36.918 184.977 38.986C183.657 41.01 182.997 43.826 182.997 47.434C182.997 51.086 183.679 53.946 185.043 56.014C186.407 58.082 188.717 59.116 191.973 59.116ZM244.715 42.088V64H237.785V43.012C237.785 41.912 237.587 40.834 237.191 39.778C236.795 38.722 236.025 37.842 234.881 37.138C233.781 36.434 232.131 36.082 229.931 36.082C228.699 36.082 227.489 36.192 226.301 36.412C225.157 36.632 224.035 36.94 222.935 37.336V64H216.005V33.574C217.941 32.562 220.317 31.748 223.133 31.132C225.993 30.472 228.743 30.142 231.383 30.142C235.695 30.142 238.907 30.978 241.019 32.65C242.779 31.814 244.605 31.198 246.497 30.802C248.389 30.362 250.259 30.142 252.107 30.142C256.771 30.142 260.159 31.132 262.271 33.112C264.383 35.048 265.439 38.04 265.439 42.088V64H258.509V43.012C258.509 41.912 258.311 40.834 257.915 39.778C257.519 38.722 256.749 37.842 255.605 37.138C254.505 36.434 252.855 36.082 250.655 36.082C248.367 36.082 246.233 36.676 244.253 37.864C244.561 39.096 244.715 40.504 244.715 42.088ZM289.494 64.99C284.61 64.99 280.716 63.516 277.812 60.568C274.952 57.576 273.522 53.264 273.522 47.632C273.522 41.868 274.864 37.512 277.548 34.564C280.276 31.572 284.06 30.076 288.9 30.076C292.464 30.076 295.346 30.868 297.546 32.452C299.746 34.036 301.33 36.258 302.298 39.118C303.31 41.934 303.794 45.234 303.75 49.018H280.452C280.672 52.274 281.64 54.76 283.356 56.476C285.072 58.148 287.492 58.984 290.616 58.984C292.816 58.984 294.818 58.72 296.622 58.192C298.47 57.62 300.032 56.982 301.308 56.278V62.746C299.724 63.45 297.964 64 296.028 64.396C294.092 64.792 291.914 64.99 289.494 64.99ZM288.702 35.752C286.458 35.752 284.654 36.346 283.29 37.534C281.926 38.678 281.046 40.79 280.65 43.87H296.688C296.424 41.054 295.632 39.008 294.312 37.732C293.036 36.412 291.166 35.752 288.702 35.752Z" fill="#141414"/>
  </g>
  <defs>
    <linearGradient id="paint0_linear" x1="39.5561" y1="6.89642" x2="39.5561" y2="74.2158" gradientUnits="userSpaceOnUse">
      <stop stop-color="#FFBF43"/>
      <stop offset="1" stop-color="#F1683D"/>
    </linearGradient>
    <linearGradient id="paint1_linear" x1="17" y1="14" x2="62" y2="71.5" gradientUnits="userSpaceOnUse">
      <stop stop-color="#FFE072"/>
      <stop offset="1" stop-color="#F17F16"/>
    </linearGradient>
    <linearGradient id="paint2_linear" x1="36" y1="34" x2="44" y2="48" gradientUnits="userSpaceOnUse">
      <stop stop-color="#FFB932"/>
      <stop offset="1" stop-color="#F1744C"/>
    </linearGradient>
    <clipPath id="clip0">
      <rect width="307" height="81" fill="white"/>
    </clipPath>
  </defs>
</svg>
